<svg width="32" height="32" viewBox="0 0 32 32" fill="none" xmlns="http://www.w3.org/2000/svg">
  <!-- Background -->
  <rect width="32" height="32" rx="6" fill="#000000"/>

  <!-- TikTok note icon with glitch effect -->
  <!-- Cyan/Blue layer (left offset) -->
  <path d="M18 7C18 6.44772 17.5523 6 17 6H12C11.4477 6 11 6.44772 11 7V18C11 19.1046 10.1046 20 9 20C7.89543 20 7 19.1046 7 18C7 16.8954 7.89543 16 9 16V13C6.23858 13 4 15.2386 4 18C4 20.7614 6.23858 23 9 23C11.7614 23 14 20.7614 14 18V13C15.1411 13.8144 16.5137 14.25 18 14.25V11.25C17.1716 11.25 16.5 10.5784 16.5 9.75V7H18Z" fill="#00F2EA" opacity="0.8" transform="translate(-0.5, 0.5)"/>

  <!-- Red/Pink layer (right offset) -->
  <path d="M18 7C18 6.44772 17.5523 6 17 6H12C11.4477 6 11 6.44772 11 7V18C11 19.1046 10.1046 20 9 20C7.89543 20 7 19.1046 7 18C7 16.8954 7.89543 16 9 16V13C6.23858 13 4 15.2386 4 18C4 20.7614 6.23858 23 9 23C11.7614 23 14 20.7614 14 18V13C15.1411 13.8144 16.5137 14.25 18 14.25V11.25C17.1716 11.25 16.5 10.5784 16.5 9.75V7H18Z" fill="#FF0050" opacity="0.8" transform="translate(0.5, -0.5)"/>

  <!-- White center layer -->
  <path d="M18 7C18 6.44772 17.5523 6 17 6H12C11.4477 6 11 6.44772 11 7V18C11 19.1046 10.1046 20 9 20C7.89543 20 7 19.1046 7 18C7 16.8954 7.89543 16 9 16V13C6.23858 13 4 15.2386 4 18C4 20.7614 6.23858 23 9 23C11.7614 23 14 20.7614 14 18V13C15.1411 13.8144 16.5137 14.25 18 14.25V11.25C17.1716 11.25 16.5 10.5784 16.5 9.75V7H18Z" fill="#FFFFFF"/>
</svg>
